<svg id="Ebene_1" data-name="Ebene 1" xmlns="http://www.w3.org/2000/svg" viewBox="0 0 1180.47 203"><defs><style>.cls-1{fill:#1d1d1b;}.cls-2{fill:#19de8b;stroke:#0f9b59;stroke-miterlimit:10;stroke-width:3px;}.cls-3{fill:#d0e6d9;}</style></defs><title>logo</title><path class="cls-1" d="M249.17,138.69a28.71,28.71,0,0,1-8.75-21,29.06,29.06,0,0,1,8.41-21.12,28.15,28.15,0,0,1,40.54.13,28.47,28.47,0,0,1,8.27,20.51v1.51a.79.79,0,0,1-.82.88l-49.08,4.31A23.21,23.21,0,0,0,281.44,138a23.08,23.08,0,0,0,8.41-7.93.83.83,0,0,1,1.29-.34l4,2.26a.9.9,0,0,1,.34,1.36,29.74,29.74,0,0,1-10.87,10.26,29.06,29.06,0,0,1-14.42,3.76A28.59,28.59,0,0,1,249.17,138.69ZM253.34,101a23.08,23.08,0,0,0-6.42,16.47L291,113.61a20.81,20.81,0,0,0-7-13.81,21.67,21.67,0,0,0-14.91-5.4A20.85,20.85,0,0,0,253.34,101Z" transform="translate(-9.5 -12.67)"/><path class="cls-1" d="M338.11,117.57l21.39,28.78a.64.64,0,0,1-.48,1h-6.35a.86.86,0,0,1-.75-.41l-17.85-24-17.91,24a.86.86,0,0,1-.75.41h-6.29a.66.66,0,0,1-.61-.35.73.73,0,0,1,.07-.68L330,117.57,308.58,88.72a.72.72,0,0,1-.07-.68.65.65,0,0,1,.61-.34h6.29a.84.84,0,0,1,.75.41l17.91,24,17.85-24a.84.84,0,0,1,.75-.41H359a.53.53,0,0,1,.55.34.53.53,0,0,1-.07.68Z" transform="translate(-9.5 -12.67)"/><path class="cls-1" d="M403.32,87.9a29.32,29.32,0,0,1,21.33,8.75,29.3,29.3,0,0,1,0,41.91,29.32,29.32,0,0,1-21.33,8.75A30.19,30.19,0,0,1,379.74,136v48.81a.85.85,0,0,1-1,.95h-4.65a.84.84,0,0,1-.95-.95v-96a.84.84,0,0,1,.95-1h4.65a.85.85,0,0,1,1,1V99.18A30.19,30.19,0,0,1,403.32,87.9Zm0,52.91A23,23,0,0,0,420,134.05a23,23,0,0,0,0-32.89,23.78,23.78,0,0,0-33.36,0,23,23,0,0,0,0,32.89A23,23,0,0,0,403.32,140.81Z" transform="translate(-9.5 -12.67)"/><path class="cls-1" d="M453.36,138.69a28.71,28.71,0,0,1-8.75-21A29.06,29.06,0,0,1,453,96.52a28.15,28.15,0,0,1,40.54.13,28.47,28.47,0,0,1,8.27,20.51v1.51a.79.79,0,0,1-.82.88l-49.08,4.31a23.27,23.27,0,0,0,42.1,6.22.84.84,0,0,1,1.3-.34l4,2.26a.9.9,0,0,1,.34,1.36,29.74,29.74,0,0,1-10.87,10.26,29.06,29.06,0,0,1-14.42,3.76A28.59,28.59,0,0,1,453.36,138.69ZM457.53,101a23.13,23.13,0,0,0-6.43,16.47l44.1-3.82a20.81,20.81,0,0,0-7-13.81,21.67,21.67,0,0,0-14.91-5.4A20.85,20.85,0,0,0,457.53,101Z" transform="translate(-9.5 -12.67)"/><path class="cls-1" d="M565.74,146.42a.85.85,0,0,1-1,1h-4.58a.85.85,0,0,1-1-1v-2.26q.06-6,.07-15v-7.31c0-2.92.07-5.61.07-8.07v-2.12c0-.68,0-1.3-.07-1.84a17.29,17.29,0,0,0-11-14.29,18.25,18.25,0,0,0-3.62-.89l-.48-.07-.41-.06-.41-.07h-2.32a16.5,16.5,0,0,0-6.63,1.77,17.22,17.22,0,0,0-5,3.76,17.73,17.73,0,0,0-2.93,4.31,21,21,0,0,0-1.37,3.83q-.14.75-.21,1.5l-.07.62-.06.48v1l-.07,1.51v33.22a.85.85,0,0,1-1,1h-4.58c-.59,0-.89-.32-.89-1V88.72c0-.63.3-1,.89-1h4.58a.85.85,0,0,1,1,1v7.8l.41-.55a25.2,25.2,0,0,1,6.56-5.06,23.77,23.77,0,0,1,9-2.46l.61-.07h2.39l.62.07.68.07.62.07a21.44,21.44,0,0,1,4.85,1.23,22.74,22.74,0,0,1,8.61,5.6,22.31,22.31,0,0,1,5.34,8.75,23,23,0,0,1,1.09,4.92c.09.78.16,1.6.21,2.47v17.56q.06,9,.06,15Z" transform="translate(-9.5 -12.67)"/><path class="cls-1" d="M613.46,97.88a1,1,0,0,1-1.3.07,9.27,9.27,0,0,0-1.3-1,10.47,10.47,0,0,0-1.64-1,19.13,19.13,0,0,0-4.85-1.78,27.46,27.46,0,0,0-3.22-.41h-1.77a9.72,9.72,0,0,0-1,.07h-.41l-.41.07a13.38,13.38,0,0,0-3.62.89A7.13,7.13,0,0,0,591,96.72a6.2,6.2,0,0,0-1.71,3l-.14.48-.07.48q-.06.68-.06,1l-.07.55v-.07l.07.21v.95l.13.41a1.28,1.28,0,0,0,.07.34l.14.48.13.41.21.41.2.41.28.41.34.41.34.41a15.32,15.32,0,0,0,3.62,2.81c1.19.68,2.78,1.48,4.79,2.39l.68.27.76.34,1.29.62,2.6,1.09a53.71,53.71,0,0,1,5.4,2.87,21.13,21.13,0,0,1,5.06,4.31,13.25,13.25,0,0,1,3.14,6.29l.21.89a8.84,8.84,0,0,1,.07.89l.07.82v1.64a4.11,4.11,0,0,0-.07.75l-.14.89-.14.89a14.38,14.38,0,0,1-2.73,6.08,14.67,14.67,0,0,1-4.92,4,19.9,19.9,0,0,1-5.33,1.84,32.92,32.92,0,0,1-5,.62h-1.3l-1-.07a10.21,10.21,0,0,1-1.09-.07h-.62l-.54-.07a41.76,41.76,0,0,1-4.17-.82,29.22,29.22,0,0,1-6.29-2.67,17,17,0,0,1-2.6-1.64c-.59-.45-1.14-.88-1.64-1.29a.88.88,0,0,1,0-1.44l3.28-3.14a.86.86,0,0,1,1.3-.07,7.52,7.52,0,0,0,1.09.89,18.21,18.21,0,0,0,1.78,1.16,22.24,22.24,0,0,0,4.79,2,26.65,26.65,0,0,0,3.14.68l.41.07h.41a6.2,6.2,0,0,0,1,.07l1,.07h.41L600,141a27.27,27.27,0,0,0,3.9-.34,13.8,13.8,0,0,0,3.69-1.3A7.84,7.84,0,0,0,612,133.5l.07-.48.07-.41a2.26,2.26,0,0,0,.07-.61v-.69l.07-.2v0l-.07-.28v-.48a3.62,3.62,0,0,0-.07-.54l-.07-.48a8.15,8.15,0,0,0-1.78-3.62Q608,123,602,120.17L599.31,119l-1.3-.62-.55-.27-.68-.28a53.12,53.12,0,0,1-5.4-2.73,21.47,21.47,0,0,1-5.13-4,4.75,4.75,0,0,1-.55-.69l-.54-.68a12.33,12.33,0,0,1-.89-1.57l-.41-.82a3.69,3.69,0,0,1-.27-.82,15.52,15.52,0,0,1-.48-1.85l-.14-1v-.61l-.07-.34v-.55l.07-.82a11.83,11.83,0,0,1,.14-1.57l.13-.82.21-.82a12.29,12.29,0,0,1,3.21-5.68,15.26,15.26,0,0,1,5.06-3.28A23.74,23.74,0,0,1,596.78,88h.68l.62-.07c.45,0,.82-.07,1.09-.07h2.26a27.58,27.58,0,0,1,4.17.55,26.26,26.26,0,0,1,8.61,3.69c.5.37,1,.75,1.5,1.16a5.56,5.56,0,0,1,.55.48.81.81,0,0,1,0,1.37Z" transform="translate(-9.5 -12.67)"/><path class="cls-1" d="M638.55,138.69a28.67,28.67,0,0,1-8.75-21,29.09,29.09,0,0,1,8.4-21.12,28.15,28.15,0,0,1,40.54.13A28.47,28.47,0,0,1,687,117.16v1.51a.79.79,0,0,1-.82.88l-49.08,4.31a23.28,23.28,0,0,0,42.11,6.22.84.84,0,0,1,1.3-.34l4,2.26a.91.91,0,0,1,.35,1.36A29.81,29.81,0,0,1,674,143.62a29.1,29.1,0,0,1-14.43,3.76A28.57,28.57,0,0,1,638.55,138.69ZM642.72,101a23.09,23.09,0,0,0-6.43,16.47l44.09-3.82a20.77,20.77,0,0,0-7-13.81,21.65,21.65,0,0,0-14.9-5.4A20.85,20.85,0,0,0,642.72,101Z" transform="translate(-9.5 -12.67)"/><path class="cls-1" d="M826.47,146.28a.85.85,0,0,1-1,1h-4.58a.85.85,0,0,1-1-1V144q.07-6,.07-15v-7.32c0-2.91.07-5.6.07-8.07v-2.11a11.42,11.42,0,0,0-.14-1.85,14.14,14.14,0,0,0-.75-3.62,17.25,17.25,0,0,0-3.9-6.43A17.07,17.07,0,0,0,809,95.49a16.48,16.48,0,0,0-3.55-1H805l-.41-.06-.48-.07h-2.32a16.86,16.86,0,0,0-6.63,1.77,17.78,17.78,0,0,0-4.92,3.7,18.62,18.62,0,0,0-2.94,4.37,16,16,0,0,0-1.3,3.83,7.4,7.4,0,0,0-.28,1.5,2.51,2.51,0,0,1-.06.55v.48a9.92,9.92,0,0,0-.07,1l-.07,2v10l.07,1.84v20.78c0,.64-.25,1-.89,1h-4.58a.85.85,0,0,1-1-1V144q0-6,.07-15V113.67l.07-2.11c0-.69-.09-1.3-.14-1.85a20.24,20.24,0,0,0-.75-3.62,17.25,17.25,0,0,0-10.19-10.6,16.33,16.33,0,0,0-3.62-1h-.41l-.48-.06-.41-.07H761a16.86,16.86,0,0,0-6.63,1.77,18,18,0,0,0-4.93,3.7,16.18,16.18,0,0,0-2.93,4.37,13.69,13.69,0,0,0-1.58,5.33l-.07.55-.06.48v1l-.14,2.81v31.85a.85.85,0,0,1-1,1h-4.51a.85.85,0,0,1-1-1V88.72a.85.85,0,0,1,1-1h4.51a.85.85,0,0,1,1,1v7.86l.48-.61a23.79,23.79,0,0,1,6.56-5.06,23.18,23.18,0,0,1,8.89-2.46l.61-.07h2.4l.61.07.68.07.62.07a21.44,21.44,0,0,1,4.85,1.23,22.22,22.22,0,0,1,8.55,5.6,24,24,0,0,1,3.83,5.2A23.36,23.36,0,0,1,786,96a24.23,24.23,0,0,1,6.49-5.06,23.18,23.18,0,0,1,8.89-2.46l.61-.07h2.4l.68.07.61.07.62.07a21.3,21.3,0,0,1,4.85,1.23,22.86,22.86,0,0,1,8.62,5.6,23.56,23.56,0,0,1,5.33,8.68,22.39,22.39,0,0,1,1.09,4.93,21.78,21.78,0,0,1,.14,2.53v2.11q0,2.94.07,8.07v7.32q0,9,.07,15Z" transform="translate(-9.5 -12.67)"/><path class="cls-1" d="M879,147.38a.88.88,0,0,1-1-.82c-.41-3.29-.73-6.36-1-9.23a23.23,23.23,0,0,1-4.3,4.58,23.6,23.6,0,0,1-9.58,4.71,29.08,29.08,0,0,1-11.27.28,19.75,19.75,0,0,1-5.88-2,15.19,15.19,0,0,1-5-4.31q-3.36-4.73-2.94-12a15.58,15.58,0,0,1,1.71-6.09,14.05,14.05,0,0,1,4-4.78,24.62,24.62,0,0,1,9.64-4.52,52.62,52.62,0,0,1,8.89-1.29q3.62-.21,7.38-.07c1,0,2,0,3.08.13.68,0,1.54,0,2.59.14l1,.07q-.14-10.45-4-14.36-3.42-3.48-11-3.48a25.93,25.93,0,0,0-10.26,2,23.32,23.32,0,0,0-3.21,1.71c-.36.23-.73.48-1.09.75l-.76.62a.84.84,0,0,1-1.23,0l-3.41-3.08a.87.87,0,0,1,0-1.44c.31-.27.66-.54,1-.82s.94-.72,1.44-1.09a28.61,28.61,0,0,1,4.1-2.32,31.92,31.92,0,0,1,13.4-2.81q10.32,0,15.65,5.47,4,4.17,5.2,11.55a45.13,45.13,0,0,1,.54,6.64v6.69q-.06,2.32-.06,4.11,0,5.4.61,12.71.4,5.34,1.16,11.21c.09.73-.23,1.1-1,1.1Zm-5.34-15.73a25.81,25.81,0,0,0,2.33-5.94l.34-1.3-.07-2,.07-2v-2l-1.44-.14c-1.91-.18-3.69-.29-5.33-.34-2.37,0-4.67,0-6.9.14a46.39,46.39,0,0,0-7.8,1.09,18.61,18.61,0,0,0-7.24,3.28,8.77,8.77,0,0,0-3.28,6.64c-.09,3.28.57,5.87,2,7.79s3.62,3.17,6.77,3.76a22.16,22.16,0,0,0,8.68-.07,18.93,18.93,0,0,0,7.25-3.35A17.92,17.92,0,0,0,873.63,131.65Z" transform="translate(-9.5 -12.67)"/><path class="cls-1" d="M947.39,146.42a.85.85,0,0,1-.95,1h-4.58a.85.85,0,0,1-1-1v-2.26q.06-6,.07-15v-7.31c0-2.92.07-5.61.07-8.07v-2.12c0-.68,0-1.3-.07-1.84a17.29,17.29,0,0,0-11-14.29,18.25,18.25,0,0,0-3.62-.89l-.48-.07-.41-.06L925,94.4h-2.32a16.59,16.59,0,0,0-6.64,1.77,17.31,17.31,0,0,0-5,3.76,17.73,17.73,0,0,0-2.93,4.31,21,21,0,0,0-1.37,3.83q-.13.75-.21,1.5l-.07.62-.06.48v1l-.07,1.51v33.22a.85.85,0,0,1-1,1h-4.58c-.59,0-.89-.32-.89-1V88.72c0-.63.3-1,.89-1h4.58a.85.85,0,0,1,1,1v7.8l.41-.55a25.2,25.2,0,0,1,6.56-5.06,23.77,23.77,0,0,1,9-2.46l.61-.07h2.39l.62.07.68.07.62.07a21.44,21.44,0,0,1,4.85,1.23,22.74,22.74,0,0,1,8.61,5.6,22.31,22.31,0,0,1,5.34,8.75,23,23,0,0,1,1.09,4.92c.09.78.16,1.6.21,2.47v17.56q.06,9,.06,15Z" transform="translate(-9.5 -12.67)"/><path class="cls-1" d="M999.89,147.38a.88.88,0,0,1-.95-.82c-.41-3.29-.73-6.36-1-9.23a23.28,23.28,0,0,1-4.31,4.58,23.62,23.62,0,0,1-9.57,4.71,29.13,29.13,0,0,1-11.28.28,19.94,19.94,0,0,1-5.88-2,15.39,15.39,0,0,1-5-4.31q-3.35-4.73-2.94-12a15.93,15.93,0,0,1,1.71-6.09,14.09,14.09,0,0,1,4-4.78,24.62,24.62,0,0,1,9.64-4.52,52.49,52.49,0,0,1,8.88-1.29q3.63-.21,7.39-.07c1,0,2,0,3.07.13.69,0,1.55,0,2.6.14l1,.07q-.15-10.45-4-14.36-3.42-3.48-11-3.48a25.93,25.93,0,0,0-10.26,2,23.32,23.32,0,0,0-3.21,1.71c-.37.23-.73.48-1.1.75l-.75.62a.84.84,0,0,1-1.23,0l-3.42-3.08a.88.88,0,0,1,0-1.44c.32-.27.66-.54,1-.82s.93-.72,1.44-1.09a28.61,28.61,0,0,1,4.1-2.32,31.89,31.89,0,0,1,13.4-2.81q10.32,0,15.65,5.47,4,4.17,5.19,11.55a45,45,0,0,1,.55,6.64v6.69c0,1.55-.07,2.92-.07,4.11q0,5.4.62,12.71.4,5.34,1.16,11.21c.09.73-.23,1.1-1,1.1Zm-5.33-15.73a26.27,26.27,0,0,0,2.33-5.94l.34-1.3-.07-2,.07-2v-2l-1.44-.14c-1.91-.18-3.69-.29-5.33-.34-2.37,0-4.67,0-6.9.14a46.39,46.39,0,0,0-7.8,1.09,18.54,18.54,0,0,0-7.24,3.28,8.77,8.77,0,0,0-3.28,6.64c-.1,3.28.56,5.87,2,7.79s3.62,3.17,6.77,3.76a22.16,22.16,0,0,0,8.68-.07,18.82,18.82,0,0,0,7.24-3.35A17.81,17.81,0,0,0,994.56,131.65Z" transform="translate(-9.5 -12.67)"/><path class="cls-1" d="M1066.68,135.75a31.57,31.57,0,0,1-2.67,3,29.77,29.77,0,0,1-50.85-21A29.77,29.77,0,0,1,1064,96.58a32.84,32.84,0,0,1,2.67,3V88.93c0-.64.3-1,.89-1h4.58a.85.85,0,0,1,1,1v60.5a29.87,29.87,0,0,1-29.81,29.8,29.95,29.95,0,0,1-25.36-14.08.84.84,0,0,1,.34-1.3l4-2.32a.84.84,0,0,1,1.3.34,22.6,22.6,0,0,0,11.14,9.23,22.86,22.86,0,0,0,14.76.82,22.09,22.09,0,0,0,12.45-8.62,23.7,23.7,0,0,0,4.78-14.49Zm-40.26-34.59A23.35,23.35,0,0,0,1043,141a23.35,23.35,0,0,0,23.31-23.31,23.35,23.35,0,0,0-39.85-16.55Z" transform="translate(-9.5 -12.67)"/><path class="cls-1" d="M1097,138.69a28.71,28.71,0,0,1-8.75-21,29.06,29.06,0,0,1,8.41-21.12,28.15,28.15,0,0,1,40.54.13,28.47,28.47,0,0,1,8.27,20.51v1.51a.79.79,0,0,1-.82.88l-49.08,4.31A23.21,23.21,0,0,0,1129.3,138a23.08,23.08,0,0,0,8.41-7.93.83.83,0,0,1,1.29-.34l4,2.26a.9.9,0,0,1,.34,1.36,29.74,29.74,0,0,1-10.87,10.26,29,29,0,0,1-14.42,3.76A28.61,28.61,0,0,1,1097,138.69ZM1101.2,101a23.08,23.08,0,0,0-6.42,16.47l44.09-3.82a20.81,20.81,0,0,0-7-13.81,21.67,21.67,0,0,0-14.91-5.4A20.86,20.86,0,0,0,1101.2,101Z" transform="translate(-9.5 -12.67)"/><path class="cls-1" d="M1189.18,88.52a.86.86,0,0,1,.75,1.16l-.89,4.44a.87.87,0,0,1-1.09.76,15,15,0,0,0-2.53-.21,17,17,0,0,0-17,17v34.73c0,.64-.3,1-.89,1h-4.58a.85.85,0,0,1-1-1V88.79a.85.85,0,0,1,1-1h4.58c.59,0,.89.32.89,1v6.84a22.53,22.53,0,0,1,17-7.39A25.9,25.9,0,0,1,1189.18,88.52Z" transform="translate(-9.5 -12.67)"/><circle class="cls-2" cx="101.5" cy="101.5" r="100"/><path class="cls-3" d="M146.16,139.78v1.65a10,10,0,0,0-.12,1.41l-.24,1.65-.23,1.65a26.55,26.55,0,0,1-5.18,11.29,28.1,28.1,0,0,1-9.18,7.65,37.6,37.6,0,0,1-10,3.42,52,52,0,0,1-5.77.82v9.41q0,1.65-1.53,1.65H106a1.46,1.46,0,0,1-1.65-1.65v-9.41l-1.17-.12a67.15,67.15,0,0,1-7.89-1.53,55.23,55.23,0,0,1-11.77-4.94,46.89,46.89,0,0,1-5.06-3.3A30.26,30.26,0,0,1,75.43,157a1.39,1.39,0,0,1,0-2.35l5.65-5.41a1.56,1.56,0,0,1,2.24,0,17.94,17.94,0,0,0,2.23,1.64A28.09,28.09,0,0,0,89,153.08a41.05,41.05,0,0,0,9.41,4,32.42,32.42,0,0,0,6,1.18V113q-5.41-2.48-9.06-4.59a40.11,40.11,0,0,1-9.53-7.65,9.37,9.37,0,0,1-1.06-1.29l-1.06-1.3A30.76,30.76,0,0,1,82,95.3l-.7-1.53-.59-1.53a28.9,28.9,0,0,1-.83-3.41l-.23-1.77-.12-1.29V82.71a16,16,0,0,1,.35-2.95l.24-1.53.35-1.52a22.29,22.29,0,0,1,6-10.6A26.69,26.69,0,0,1,95.91,60a39.25,39.25,0,0,1,8.47-2.11V48.82q0-1.53,1.65-1.53h7.88a1.35,1.35,0,0,1,1.53,1.53v8.7a56.1,56.1,0,0,1,6.59.94,50.54,50.54,0,0,1,12.12,4.48c1.42.78,2.75,1.61,4,2.47,1,.7,2,1.41,2.94,2.12.23.23.59.55,1.06.94a1.54,1.54,0,0,1,.11,2.47l-4.94,4.71a1.38,1.38,0,0,1-2.12.11,26.84,26.84,0,0,0-2.59-1.88,19.32,19.32,0,0,0-3.29-2,36.26,36.26,0,0,0-9.41-3.53c-1.42-.24-2.91-.43-4.48-.59v38.6l4.48,2a92.42,92.42,0,0,1,10.23,5.41,39.62,39.62,0,0,1,9.54,8,24.66,24.66,0,0,1,5.88,11.76l.35,1.65a13.32,13.32,0,0,1,.12,1.65l.12,1.53v1.41ZM100.62,99.3c1.09.63,2.35,1.29,3.76,2V68.23a30.22,30.22,0,0,0-4.71,1.41,17,17,0,0,0-5.76,3.65,13,13,0,0,0-3.41,6.12l-.24.94-.12.94a11.66,11.66,0,0,0-.23,2v1.88L90,86.47l.12.83a3.44,3.44,0,0,1,.24.7l.23.94a6.52,6.52,0,0,0,.36.83l.35.82.47.82.47.83.59.82a2.8,2.8,0,0,0,.71.71A27.84,27.84,0,0,0,100.62,99.3Zm34.83,40v-.59l-.12-.94a5.46,5.46,0,0,0-.12-1.06l-.11-.94a16.73,16.73,0,0,0-3.53-7.18q-4.48-5.3-16.13-10.59v40.37l3.65-.48a31.57,31.57,0,0,0,7.18-2.47A15.67,15.67,0,0,0,135,143.9l.12-.82.23-1V141l.12-.71v-.94Z" transform="translate(-9.5 -12.67)"/></svg>