<?xml version="1.0" encoding="utf-8"?>
<!-- Generator: Adobe Illustrator 24.0.3, SVG Export Plug-In . SVG Version: 6.00 Build 0)  -->
<svg version="1.1" id="Ebene_1" xmlns="http://www.w3.org/2000/svg" xmlns:xlink="http://www.w3.org/1999/xlink" x="0px" y="0px"
	 viewBox="0 0 1200 150" style="enable-background:new 0 0 1200 150;" xml:space="preserve">
<style type="text/css">
	.st0{enable-background:new    ;}
	.st1{fill:#1D1D1C;}
	.st2{fill:#37B1AB;stroke:#285E61;stroke-width:5.968;stroke-miterlimit:10;}
	.st3{fill:#FFFFFF;}
</style>
<g class="st0">
	<path class="st1" d="M203,42.5c8.2,0,15.1,3.1,20.8,9c5.7,5.9,8.6,13,8.6,21.2v3.9c0,0.5-0.3,0.8-0.8,0.9l-45.1,3.9
		c1.5,3.3,3.9,5.9,7,7.9c3.1,2,6.6,3,10.3,3c3.3,0,6.4-0.8,9.2-2.3c2.9-1.6,5.2-3.8,7-6.5c0.3-0.5,0.7-0.6,1.2-0.3l8.4,4.9
		c0.5,0.3,0.7,0.7,0.3,1.2c-2.8,4.5-6.5,8.1-11.2,10.7c-4.6,2.6-9.6,3.9-15,3.9c-8.4,0-15.7-3-21.7-9c-6-6-9-13.2-9-21.7
		c0-8.7,2.9-16,8.7-21.9C187.6,45.4,194.6,42.4,203,42.5z M220.3,66.9c-1-3.9-3.1-7-6.2-9.4c-3.1-2.4-6.9-3.6-11.3-3.6
		c-4.6,0-8.6,1.5-11.9,4.5c-3.3,3-5.3,6.8-6,11.5L220.3,66.9z"/>
	<path class="st1" d="M302.2,42.4c0.4,0,0.6,0.2,0.8,0.5c0.2,0.3,0.2,0.6-0.1,0.9l-21.8,29.3l21.8,29.3c0.2,0.3,0.2,0.6,0.1,1
		c-0.1,0.3-0.4,0.5-0.8,0.5h-12.5c-0.3,0-0.6-0.1-0.8-0.3L273.7,83l-15.2,20.5c-0.2,0.2-0.4,0.3-0.7,0.3h-12.5
		c-0.4,0-0.6-0.2-0.8-0.5c-0.1-0.3-0.1-0.6,0.1-1l21.8-29.3l-21.8-29.3c-0.2-0.3-0.2-0.6-0.1-0.9c0.2-0.4,0.5-0.5,0.8-0.5h12.5
		c0.3,0,0.5,0.1,0.7,0.4l15.2,20.4L289,42.8c0.2-0.3,0.4-0.4,0.8-0.4H302.2z"/>
	<path class="st1" d="M348.9,42.5c7.7,0.3,14.4,3.2,20.1,8.8c5.7,5.5,8.7,12.1,9.2,19.9c0.3,4.4-0.3,8.6-1.8,12.6
		c-1.5,3.9-3.6,7.4-6.5,10.5c-6.1,6.4-13.5,9.6-22.4,9.6c-7.2,0-13.5-2.3-19.1-6.8v42.5c0,0.6-0.3,0.9-0.9,0.9h-9.9
		c-0.6,0-0.9-0.3-0.9-0.9V43.5c0-0.6,0.3-0.9,0.9-0.9h9.9c0.6,0,0.9,0.3,0.9,0.9v5.7C334.4,44.4,341.2,42.2,348.9,42.5z M347.6,92.3
		c5.3,0,9.8-1.9,13.6-5.6c3.7-3.7,5.6-8.2,5.6-13.5c0-5.3-1.9-9.8-5.6-13.6c-3.8-3.7-8.3-5.6-13.6-5.6c-5.2,0-9.7,1.8-13.4,5.5
		c-3.7,3.6-5.7,8.1-5.7,13.3v0.8c0.1,5.2,2,9.6,5.7,13.3C337.9,90.5,342.4,92.3,347.6,92.3z"/>
	<path class="st1" d="M416.5,42.5c8.2,0,15.1,3.1,20.8,9c5.7,5.9,8.6,13,8.6,21.2v3.9c0,0.5-0.3,0.8-0.8,0.9l-45.1,3.9
		c1.5,3.3,3.9,5.9,7,7.9c3.1,2,6.6,3,10.3,3c3.3,0,6.4-0.8,9.2-2.3c2.9-1.6,5.2-3.8,7-6.5c0.3-0.5,0.7-0.6,1.2-0.3l8.4,4.9
		c0.5,0.3,0.7,0.7,0.3,1.2c-2.8,4.5-6.5,8.1-11.2,10.7c-4.6,2.6-9.6,3.9-15,3.9c-8.4,0-15.7-3-21.7-9c-6-6-9-13.2-9-21.7
		c0-8.7,2.9-16,8.7-21.9C401.1,45.4,408.2,42.4,416.5,42.5z M433.8,66.9c-1-3.9-3.1-7-6.2-9.4c-3.1-2.4-6.9-3.6-11.3-3.6
		c-4.6,0-8.6,1.5-11.9,4.5c-3.3,3-5.3,6.8-6,11.5L433.8,66.9z"/>
	<path class="st1" d="M513.3,83.8c0,5.7,0.1,10.4,0.1,14.2l0.1,4.9c0,0.6-0.3,0.9-0.9,0.9h-9.8c-0.6,0-0.9-0.3-0.9-0.9l0.1-4.9
		c0-3.8,0-8.5,0.1-14.2c0-1.5,0-3.8,0.1-6.8v-1.8v-1.9c0-1.4,0-2.7,0-3.9v-2l-0.1-1.4c-0.1-1-0.3-2-0.5-2.9
		c-0.6-1.9-1.7-3.6-3.1-5.1c-1.4-1.5-3-2.6-5-3.3c-0.9-0.4-1.8-0.6-2.8-0.8l-0.4-0.1c-0.1,0-0.2-0.1-0.3-0.1h-0.2h-0.1
		c-0.1,0-0.2,0-0.4,0l-0.5-0.1h-0.1h-0.1H488l-0.3,0.1c-3.6,0.1-6.7,1.6-9.2,4.3c-1,1-1.8,2.1-2.4,3.4c-0.5,1-0.9,2-1.1,3.1
		c-0.1,0.5-0.2,0.9-0.3,1.2V66v0.2l-0.1,0.3c0,0.4,0,0.7-0.1,1v0.8V103c0,0.6-0.3,0.9-0.9,0.9h-10c-0.6,0-0.9-0.3-0.9-0.9V43
		c0-0.6,0.3-0.9,0.9-0.9h10c0.6,0,0.9,0.3,0.9,0.9v4.6c1-0.8,2.1-1.4,3.1-1.9c2.9-1.5,6-2.4,9.4-2.7l0.6-0.1h0.6h0.3h0.3h0.1h0.5
		c0.1,0,0.3,0,0.6,0l0.3,0.1h0.3c0.2,0,0.5,0,0.7,0.1l0.7,0.1c1.8,0.3,3.5,0.7,5.1,1.3c3.5,1.3,6.5,3.2,9,5.9
		c2.6,2.6,4.5,5.7,5.7,9.2c0.6,1.7,1,3.4,1.2,5.2c0.1,0.9,0.2,1.8,0.2,2.7v2c0,1.2,0,2.5,0,3.9v1.9l0.1,1.8
		C513.3,80.1,513.3,82.3,513.3,83.8z"/>
	<path class="st1" d="M567.7,85.4v0.5v0.6v0.6v0.2l-0.1,0.1c0,0.1,0,0.3,0,0.4l-0.1,1l-0.1,1c-0.5,2.6-1.5,4.8-3.1,6.8
		c-1.5,1.9-3.3,3.4-5.5,4.5c-1.7,0.9-3.6,1.5-5.7,2.1c-2,0.4-3.7,0.6-5.2,0.6h-0.6H547h-0.3h-0.1l-1-0.1c-0.3,0-0.6,0-1.1,0
		c-0.3,0-0.7-0.1-1.2-0.1c-1.4-0.2-2.8-0.5-4.4-0.9c-2.3-0.6-4.4-1.5-6.5-2.7c-1-0.6-2-1.2-2.9-1.9c-0.6-0.5-1.2-0.9-1.7-1.4
		c-0.5-0.4-0.5-0.8,0-1.3l7.1-6.8c0.4-0.3,0.8-0.3,1.2-0.1c0.4,0.3,0.7,0.6,1,0.8c0.4,0.3,0.8,0.5,1,0.7c1.3,0.7,2.6,1.3,4,1.6
		l0.6,0.2l0.6,0.1l0.3,0.1l0.3,0.1c0.3,0,0.5,0.1,0.6,0.1l0.3,0.1h0.3c0.3,0,0.6,0.1,0.9,0.1l1,0.1l0.6-0.1c0.9,0,1.9-0.1,3.2-0.3
		c1.1-0.3,2.1-0.6,2.8-1c1.5-0.8,2.4-2,2.8-3.6l0.1-0.3l0.1-0.2v-0.2v-0.2v-0.1l0.1-0.6v-0.1v-0.1l-0.1-0.3c0-0.1,0-0.2,0-0.3
		l-0.1-0.3c-0.1-0.8-0.5-1.5-1.1-2.3c-1.2-1.4-3.5-2.9-6.9-4.5l-2.5-1.2l-1.2-0.5l-0.3-0.1l-0.2-0.1V76l-0.6-0.2
		c-2.2-1-4-1.9-5.3-2.7c-2.2-1.3-4.1-2.8-5.5-4.3c-0.2-0.2-0.4-0.4-0.6-0.8l-0.5-0.8c-0.5-0.6-0.8-1.2-1-1.7l-0.5-1
		c-0.1-0.4-0.3-0.7-0.3-1l-0.3-1l-0.1-0.5l-0.1-0.5c-0.1-0.4-0.2-0.8-0.2-1.2v-0.6l-0.1-0.3v-0.1v-0.1v-0.3v-0.1c0,0,0,0,0,0.1v-0.1
		l0.1-0.9c0-0.5,0-1.1,0.1-1.8c0-0.4,0.2-1,0.4-1.8c0.7-2.6,1.9-4.7,3.7-6.4c1.5-1.6,3.4-2.8,5.6-3.7c1.6-0.6,3.4-1,5.4-1.3
		c1.2-0.1,2.1-0.1,2.5-0.1l1.2-0.1l1.2,0.1c1.3,0,2.7,0.2,4.3,0.5c2.3,0.5,4.6,1.4,6.7,2.5c0.8,0.4,1.6,0.9,2.3,1.4
		c0.6,0.4,1.1,0.8,1.6,1.2c0.1,0.1,0.4,0.4,0.7,0.7c0.5,0.4,0.5,0.8,0.1,1.3l-6.3,6.1c-0.4,0.4-0.8,0.4-1.2,0.1
		c-0.4-0.3-0.7-0.5-1-0.8c-0.5-0.3-0.8-0.5-1.1-0.7c-1.3-0.6-2.6-1.1-4-1.4c-1-0.2-1.9-0.3-2.6-0.3l-0.8-0.1l-0.8,0.1
		c-0.3,0-0.6,0-0.9,0l-0.3,0.1h-0.3c-1.1,0.2-2.1,0.4-2.8,0.7c-0.8,0.4-1.4,0.8-1.8,1.2c-0.5,0.5-0.8,1-1,1.8l-0.1,0.3l-0.1,0.3
		l-0.1,0.3v0.3v0.3V59l0.1,0.6v0.1h0.1v0.1v0.1l0.1,0.3l0.1,0.2l0.1,0.2l0.3,0.5l0.2,0.3l0.2,0.3c0.6,0.7,1.6,1.4,2.8,2.1
		c1,0.6,2.5,1.3,4.3,2.1l0.5,0.3l0.8,0.3l1.2,0.6l2.4,1c2.1,1,3.9,1.9,5.4,2.9c2.2,1.4,4,2.9,5.4,4.5c1.8,2.1,3,4.5,3.6,7.1l0.1,1
		c0.1,0.4,0.1,0.7,0.1,1L567.7,85.4z"/>
	<path class="st1" d="M605.5,42.5c8.2,0,15.1,3.1,20.8,9c5.7,5.9,8.6,13,8.6,21.2v3.9c0,0.5-0.3,0.8-0.8,0.9l-45.1,3.9
		c1.5,3.3,3.9,5.9,7,7.9c3.1,2,6.6,3,10.3,3c3.3,0,6.4-0.8,9.2-2.3c2.9-1.6,5.2-3.8,7-6.5c0.3-0.5,0.7-0.6,1.2-0.3l8.4,4.9
		c0.5,0.3,0.7,0.7,0.3,1.2c-2.8,4.5-6.5,8.1-11.2,10.7c-4.6,2.6-9.6,3.9-15,3.9c-8.4,0-15.7-3-21.7-9c-6-6-9-13.2-9-21.7
		c0-8.7,2.9-16,8.7-21.9C590.1,45.4,597.2,42.4,605.5,42.5z M622.8,66.9c-1-3.9-3.1-7-6.2-9.4c-3.1-2.4-6.9-3.6-11.3-3.6
		c-4.6,0-8.6,1.5-11.9,4.5c-3.3,3-5.3,6.8-6,11.5L622.8,66.9z"/>
	<path class="st1" d="M775.8,83.8c0,5.7,0.1,10.4,0.1,14.2v4.9c0,0.6-0.3,0.9-0.9,0.9h-9.8c-0.6,0-0.9-0.3-0.9-0.9V98l0.1-14.2
		c0-1.5,0-3.7,0.1-6.8v-1.8v-1.9c0-1.4,0-2.7,0.1-3.9v-2l-0.1-1.4c-0.1-1-0.3-1.9-0.6-2.9c-0.6-1.9-1.7-3.6-3.1-5.1
		c-1.4-1.5-3-2.6-4.9-3.3c-0.9-0.4-1.9-0.6-2.9-0.8l-0.3-0.1c-0.2,0-0.3,0-0.3-0.1h-0.1h-0.1c-0.1,0-0.3,0-0.4,0l-0.5-0.1h-0.1h-0.2
		l-0.3,0.1h-0.3c-3.7,0.2-6.8,1.6-9.3,4.3c-1,1-1.8,2.1-2.4,3.4c-0.5,1-0.9,2-1.1,3.1c-0.1,0.5-0.2,0.9-0.2,1.2l-0.1,0.2v0.2
		l-0.1,0.3c0,0.4,0,0.7,0,1l-0.1,2.2c0,2,0.1,4.5,0.1,7.5v1.8v1.7c0,1.3,0.1,2.3,0.1,3.2c0,5.7,0,10.4,0.1,14.2v4.9
		c0,0.6-0.3,0.9-0.9,0.9h-9.8c-0.6,0-0.9-0.3-0.9-0.9V98c0-3.8,0.1-8.5,0.1-14.2c0-1.5,0.1-3.7,0.1-6.8v-1.8v-1.9
		c0-1.4,0.1-2.7,0.1-3.9v-2l-0.1-1.4c-0.1-1-0.3-1.9-0.6-2.9c-0.6-1.9-1.7-3.6-3.1-5.1c-1.4-1.5-3-2.6-4.9-3.3
		c-0.9-0.4-1.9-0.6-2.9-0.8l-0.3-0.1c-0.2,0-0.3,0-0.3-0.1h-0.1h-0.1c-0.1,0-0.3,0-0.4,0l-0.5-0.1h-0.1H712l-0.7,0.1
		c-3.7,0.2-6.8,1.6-9.3,4.3c-1,1-1.8,2.1-2.4,3.4c-0.5,1-0.9,2-1.1,3.1c-0.1,0.5-0.2,0.9-0.2,1.2l-0.1,0.2v0.2v0.3
		c0,0.4-0.1,0.7-0.1,1l-0.1,0.8V103c0,0.6-0.3,0.9-0.9,0.9h-9.9c-0.6,0-0.9-0.3-0.9-0.9V43c0-0.6,0.3-0.9,0.9-0.9h9.9
		c0.6,0,0.9,0.3,0.9,0.9v4.6c1.1-0.8,2.1-1.4,3.1-1.9c2.9-1.5,6-2.4,9.4-2.7l1.3-0.1h0.3h0.3h0.1h0.5c0.1,0,0.3,0,0.5,0.1h0.4h0.3
		c0.2,0,0.4,0.1,0.7,0.1l0.6,0.1c1.8,0.3,3.5,0.7,5.2,1.3c3.5,1.3,6.5,3.3,9,5.9c0.7,0.7,1.3,1.4,2,2.3c0.4-0.5,0.8-1.1,1.3-1.6
		c2-2.2,4.2-4,6.8-5.3c2.9-1.5,6-2.4,9.4-2.7l1.3-0.1h0.3h0.3h0.1h0.5c0.1,0,0.3,0,0.5,0.1h0.3h0.4c0.2,0,0.4,0.1,0.7,0.1l0.6,0.1
		c1.8,0.3,3.5,0.7,5.2,1.3c3.5,1.3,6.5,3.3,9,5.9c2.6,2.6,4.4,5.7,5.6,9.2c0.6,1.7,1,3.4,1.2,5.2c0.1,0.9,0.1,1.8,0.1,2.7v2
		c0,1.2,0,2.5,0.1,3.9v1.9V77C775.8,80.1,775.8,82.4,775.8,83.8z"/>
	<path class="st1" d="M838.7,74c0,1.6-0.1,2.8-0.1,3.6c0,4,0.3,8.7,0.8,14.3c0.2,2.1,0.4,4.1,0.7,6.3c0.2,1.6,0.4,3.2,0.6,4.7
		c0.1,0.7-0.2,1-0.9,1H830c-0.5,0-0.8-0.2-0.9-0.8c-0.2-1.7-0.4-3.4-0.6-5.1c-4.6,3.9-10.2,5.8-16.5,5.8c-6.6,0-11.7-1.7-15.4-5.1
		c-3.7-3.4-5.5-8.1-5.5-14.2c0-5.4,1.9-9.8,5.8-13.2c5.9-5.2,16-7.4,30.2-6.5c-0.3-4.1-1.3-6.9-2.8-8.5c-1.6-1.7-4.4-2.5-8.4-2.5
		c-3,0-5.8,0.5-8.3,1.6c-0.9,0.4-1.8,0.8-2.6,1.3c-0.6,0.4-1.1,0.7-1.6,1.1c-0.4,0.4-0.8,0.4-1.2,0l-7.2-6.6c-0.5-0.5-0.5-0.9,0-1.3
		c0.3-0.3,0.7-0.6,1-0.9c0.5-0.4,1-0.8,1.5-1.2c1.3-0.9,2.8-1.7,4.3-2.5c4.2-2,8.9-3,14-3c7.2,0,12.8,2,16.7,5.9
		c2.7,2.8,4.5,6.5,5.4,11.1c0.6,3.1,0.9,7.2,0.8,12.3C838.7,72.5,838.7,73.2,838.7,74z M811.9,92.3c1.3,0,2.6-0.2,3.9-0.5
		c1.7-0.5,3.2-1.2,4.6-2.1c3.6-2.6,5.8-7.1,6.6-13.3c-2.1-0.1-4-0.2-5.9-0.2c-8.2,0-13.8,1.3-16.7,3.8c-1.2,1.1-1.8,2.6-1.8,4.5
		c0,2.5,0.5,4.2,1.4,5.3C805.4,91.5,808,92.3,811.9,92.3z"/>
	<path class="st1" d="M908.2,83.8c0,5.7,0.1,10.4,0.1,14.2l0.1,4.9c0,0.6-0.3,0.9-0.9,0.9h-9.8c-0.6,0-0.9-0.3-0.9-0.9l0.1-4.9
		c0-3.8,0-8.5,0.1-14.2c0-1.5,0-3.8,0.1-6.8v-1.8v-1.9c0-1.4,0-2.7,0-3.9v-2l-0.1-1.4c-0.1-1-0.3-2-0.5-2.9
		c-0.6-1.9-1.7-3.6-3.1-5.1c-1.4-1.5-3-2.6-5-3.3c-0.9-0.4-1.8-0.6-2.8-0.8l-0.4-0.1c-0.1,0-0.2-0.1-0.3-0.1h-0.2h-0.1
		c-0.1,0-0.2,0-0.4,0l-0.5-0.1h-0.1h-0.1h-0.4l-0.3,0.1c-3.6,0.1-6.7,1.6-9.2,4.3c-1,1-1.8,2.1-2.4,3.4c-0.5,1-0.9,2-1.1,3.1
		c-0.1,0.5-0.2,0.9-0.3,1.2V66v0.2l-0.1,0.3c0,0.4,0,0.7-0.1,1v0.8V103c0,0.6-0.3,0.9-0.9,0.9h-10c-0.6,0-0.9-0.3-0.9-0.9V43
		c0-0.6,0.3-0.9,0.9-0.9h10c0.6,0,0.9,0.3,0.9,0.9v4.6c1-0.8,2.1-1.4,3.1-1.9c2.9-1.5,6-2.4,9.4-2.7l0.6-0.1h0.6h0.3h0.3h0.1h0.5
		c0.1,0,0.3,0,0.6,0l0.3,0.1h0.3c0.2,0,0.5,0,0.7,0.1l0.7,0.1c1.8,0.3,3.5,0.7,5.1,1.3c3.5,1.3,6.5,3.2,9,5.9
		c2.6,2.6,4.5,5.7,5.7,9.2c0.6,1.7,1,3.4,1.2,5.2c0.1,0.9,0.2,1.8,0.2,2.7v2c0,1.2,0,2.5,0,3.9v1.9l0.1,1.8
		C908.2,80.1,908.2,82.3,908.2,83.8z"/>
	<path class="st1" d="M971,74c0,1.6-0.1,2.8-0.1,3.6c0,4,0.3,8.7,0.8,14.3c0.2,2.1,0.4,4.1,0.7,6.3c0.2,1.6,0.4,3.2,0.6,4.7
		c0.1,0.7-0.2,1-0.9,1h-9.8c-0.5,0-0.8-0.2-0.9-0.8c-0.2-1.7-0.4-3.4-0.6-5.1c-4.6,3.9-10.2,5.8-16.5,5.8c-6.6,0-11.7-1.7-15.4-5.1
		c-3.7-3.4-5.5-8.1-5.5-14.2c0-5.4,1.9-9.8,5.8-13.2c5.9-5.2,16-7.4,30.2-6.5c-0.3-4.1-1.3-6.9-2.8-8.5c-1.6-1.7-4.4-2.5-8.4-2.5
		c-3,0-5.8,0.5-8.3,1.6c-0.9,0.4-1.8,0.8-2.6,1.3c-0.6,0.4-1.1,0.7-1.6,1.1c-0.4,0.4-0.8,0.4-1.2,0l-7.2-6.6c-0.5-0.5-0.5-0.9,0-1.3
		c0.3-0.3,0.7-0.6,1-0.9c0.5-0.4,1-0.8,1.5-1.2c1.3-0.9,2.8-1.7,4.3-2.5c4.2-2,8.9-3,14-3c7.2,0,12.8,2,16.7,5.9
		c2.7,2.8,4.5,6.5,5.4,11.1c0.6,3.1,0.9,7.2,0.8,12.3C971.1,72.5,971,73.2,971,74z M944.3,92.3c1.3,0,2.6-0.2,3.9-0.5
		c1.7-0.5,3.2-1.2,4.6-2.1c3.6-2.6,5.8-7.1,6.6-13.3c-2.1-0.1-4-0.2-5.9-0.2c-8.2,0-13.8,1.3-16.7,3.8c-1.2,1.1-1.8,2.6-1.8,4.5
		c0,2.5,0.5,4.2,1.4,5.3C937.7,91.5,940.4,92.3,944.3,92.3z"/>
	<path class="st1" d="M1034.6,43.2c0-0.6,0.3-0.9,0.9-0.9h9.8c0.6,0,0.9,0.3,0.9,0.9v59.9c0,8.5-3,15.7-9,21.7s-13.3,9-21.7,9
		c-5.3,0-10.3-1.3-15-3.9c-4.6-2.6-8.4-6.2-11.1-10.7c-0.3-0.5-0.2-0.9,0.3-1.2l8.5-4.9c0.5-0.3,0.9-0.2,1.2,0.3
		c2.3,3.6,5.4,6.2,9.4,7.7c4.1,1.5,8.2,1.7,12.4,0.4c4.1-1.2,7.4-3.6,9.9-7.2c2.5-3.5,3.7-7.4,3.7-11.8v-5.6c-5.7,4.7-12.2,7-19.6,7
		c-4.3,0-8.5-0.9-12.4-2.6c-3.8-1.7-7.1-4.1-10-7.1c-6.1-6.5-8.9-14.2-8.3-23.1c0.5-7.8,3.6-14.5,9.3-20c5.7-5.5,12.5-8.4,20.4-8.7
		c7.7-0.3,14.6,2.1,20.6,7V43.2z M1015.1,92.4c5.3,0,9.8-1.9,13.6-5.6c3.7-3.8,5.6-8.3,5.6-13.6c0-5.3-1.9-9.8-5.6-13.6
		c-3.8-3.7-8.3-5.6-13.6-5.6c-5.3,0-9.9,1.9-13.6,5.6c-3.8,3.8-5.7,8.3-5.7,13.6c0,5.3,1.9,9.8,5.7,13.6
		C1005.2,90.5,1009.8,92.4,1015.1,92.4z"/>
	<path class="st1" d="M1088.7,42.5c8.2,0,15.1,3.1,20.8,9c5.7,5.9,8.6,13,8.6,21.2v3.9c0,0.5-0.3,0.8-0.8,0.9l-45.1,3.9
		c1.5,3.3,3.9,5.9,7,7.9c3.1,2,6.6,3,10.3,3c3.3,0,6.4-0.8,9.2-2.3c2.9-1.6,5.2-3.8,7-6.5c0.3-0.5,0.7-0.6,1.2-0.3l8.4,4.9
		c0.5,0.3,0.7,0.7,0.3,1.2c-2.8,4.5-6.5,8.1-11.2,10.7c-4.6,2.6-9.6,3.9-15,3.9c-8.4,0-15.7-3-21.7-9c-6-6-9-13.2-9-21.7
		c0-8.7,2.9-16,8.7-21.9C1073.3,45.4,1080.4,42.4,1088.7,42.5z M1106,66.9c-1-3.9-3.1-7-6.2-9.4c-3.1-2.4-6.9-3.6-11.3-3.6
		c-4.6,0-8.6,1.5-11.9,4.5c-3.3,3-5.3,6.8-6,11.5L1106,66.9z"/>
	<path class="st1" d="M1146.6,46.5c4.1-2.6,8.5-3.8,13.2-3.8c1.4,0,2.8,0.1,4.1,0.3c0.6,0.1,0.8,0.4,0.8,1l-2,9.6
		c-0.1,0.5-0.5,0.8-1,0.7c-0.6-0.1-1.2-0.1-1.8-0.1c-3.4,0-6.3,1.1-8.8,3.4c-2.5,2.2-4,5-4.4,8.3V103c0,0.6-0.3,0.9-0.9,0.9h-9.9
		c-0.6,0-0.9-0.3-0.9-0.9V43.1c0-0.6,0.3-0.9,0.9-0.9h9.9c0.6,0,0.9,0.3,0.9,0.9V46.5z"/>
</g>
<circle class="st2" cx="75" cy="74.9" r="70.7"/>
<g class="st0">
	<path class="st3" d="M100.7,91.8l-0.1,0.6v0.3v0.8v0.3v0.2c0,0.2,0,0.4-0.1,0.6l-0.2,1.3c-0.1,0.5-0.1,0.9-0.2,1.3
		c-0.7,3.4-2,6.4-4.1,9c-1.9,2.5-4.3,4.4-7.2,5.9c-2.2,1.2-4.7,2.1-7.6,2.7l-1.5,0.3v6.7c0,0.7-0.4,1.1-1.1,1.1h-9.1
		c-0.7,0-1.1-0.4-1.1-1.1v-6.4l-0.3-0.1c-1.8-0.2-3.7-0.5-5.8-1.1c-3-0.8-5.9-2-8.7-3.6c-1.4-0.8-2.7-1.7-3.8-2.6
		c-0.8-0.6-1.6-1.2-2.3-1.8c-0.6-0.6-0.6-1.1,0-1.6l8.7-8.3c0.4-0.4,0.9-0.5,1.4-0.1c0.5,0.4,1,0.8,1.4,1.1c0.6,0.4,1.2,0.8,1.7,1.1
		c1.7,1,3.6,1.8,5.5,2.3l0.8,0.2l0.9,0.3l0.5,0.1V77.3c-2.7-1.2-5-2.4-6.8-3.4c-3-1.7-5.4-3.7-7.2-5.8c-0.3-0.2-0.6-0.5-0.8-0.9
		L52.9,66c-0.6-0.9-1.1-1.6-1.3-2.3L51,62.5c-0.2-0.5-0.4-0.9-0.5-1.3L50.2,60c-0.1-0.2-0.1-0.5-0.2-0.8l-0.2-0.8
		c-0.1-0.6-0.1-1.1-0.2-1.5l-0.1-0.8v-0.4v-0.3v-0.1v-0.1l-0.1-0.3v-0.2c0-0.1,0,0,0,0.1v-0.1l0.1-1.2c0-0.6,0.1-1.4,0.3-2.3
		l0.2-1.2l0.3-1.2c0.9-3.3,2.5-6.2,4.8-8.4c2.1-2.1,4.5-3.7,7.4-4.8c1.8-0.7,3.8-1.3,5.9-1.6v-7c0-0.7,0.4-1.1,1.1-1.1h9.1
		c0.7,0,1.1,0.4,1.1,1.1v7c0.8,0.1,1.5,0.3,2.1,0.4c3.1,0.7,6,1.8,8.9,3.3c1.1,0.6,2.1,1.2,3,1.8c0.8,0.5,1.5,1,2.2,1.6
		c0.2,0.2,0.6,0.5,1,0.9c0.6,0.5,0.6,1,0,1.6l-7.6,7.4c-0.4,0.4-0.9,0.5-1.4,0.1c-0.5-0.4-1-0.7-1.4-1c-0.7-0.4-1.3-0.8-1.8-1.1
		c-1.6-0.8-3.2-1.4-4.9-1.8v20.2l1.3,0.6c2.8,1.3,5.3,2.6,7.3,3.8c2.9,1.8,5.3,3.8,7.1,5.9c2.4,2.8,4,5.9,4.7,9.4l0.3,1.3
		c0.1,0.5,0.1,0.9,0.1,1.3l0.1,1.3L100.7,91.8z M68.4,62.3L68.4,62.3l0.1-14.7c-0.4,0.2-0.8,0.3-1.2,0.4c-1.2,0.5-2.1,1.1-2.8,1.8
		c-0.7,0.7-1.1,1.6-1.4,2.7L63,52.9l-0.1,0.5l-0.1,0.5v0.5l-0.1,0.5V55l0.1,0.4v0.8l0.1,0.1v0.1l0.1,0.2v0.1l0.1,0.4l0.2,0.3
		l0.2,0.3l0.3,0.4l0.2,0.3l0.3,0.3l0.3,0.4C65.4,60.3,66.7,61.3,68.4,62.3z M87,92v-0.2v-0.2v-0.5c0-0.2,0-0.3-0.1-0.5l-0.1-0.4
		c-0.2-1.2-0.8-2.4-1.7-3.4c-1.1-1.3-2.8-2.7-5.4-4.1v18.2c1.1-0.3,2-0.6,2.8-1c2.2-1.2,3.6-3,4.2-5.4l0.1-0.4l0.1-0.4v-0.3v-0.3
		v-0.3L87,92z"/>
</g>
</svg>
